<svg xmlns="http://www.w3.org/2000/svg" viewBox="0 0 3840 2160">
  <defs>
    <style>
      .cls-1, .cls-2, .cls-3, .cls-4 {
        stroke: #fff;
        stroke-miterlimit: 10;
      }

      .cls-2 {
        fill: none;
      }

      .cls-3 {
        stroke-width: 0.58px;
      }

      .cls-4 {
        stroke-width: 1.05px;
      }
    </style>
  </defs>
  <g id="Слой_3" data-name="Слой 3">
    <g>
      <path class="cls-1" d="M3840.5,2160l-214-109.43C3493,2037.05,2967.33,1969.33,2838,1949l-153-134-503.5-129.19-129-126.76-296-100.31q-40-59.27-80-118.55l-262-70.21-96-178.74L863,970,581,683,0,571V2159.54Z"/>
      <path class="cls-1" d="M1061,2035l-249-43L478,1795,226,1526l-24-179,27-89,95-72,98-9,152,47,164,75,219,118,232,160,107,97,90,144,12,102-70,93Z"/>
      <polygon class="cls-1" points="429 1665 448 1674 520 1529 504 1527 429 1665"/>
      <polygon class="cls-1" points="611 1325 624 1332 657 1280 649 1278 611 1325"/>
      <path class="cls-1" d="M1085,1505l-46.5,48.5-6,48-7,81,31-37L1087,1585q7-34,14-68l33,22q-15.26,53.74-30.5,107.5l-30,40-45,36-36,4-27-94,3-66,4-31,22-18L1029,1467q14.85,9.7,30,20Q1072.24,1496,1085,1505Z"/>
      <line class="cls-2" x1="536" y1="1623" x2="566" y2="1619"/>
      <line class="cls-2" x1="544.5" y1="1596.5" x2="570.5" y2="1598.5"/>
      <line class="cls-2" x1="562.5" y1="1554.5" x2="590.5" y2="1570.5"/>
      <line class="cls-2" x1="544.5" y1="1572.5" x2="576.5" y2="1582.5"/>
      <line class="cls-2" x1="584" y1="1522" x2="601.5" y2="1555.5"/>
      <line class="cls-2" x1="613" y1="1508" x2="615.5" y2="1541.5"/>
      <line class="cls-2" x1="590.5" y1="1625.5" x2="606.5" y2="1654.5"/>
      <line class="cls-2" x1="607.5" y1="1594.5" x2="650.5" y2="1607.5"/>
      <line class="cls-2" x1="633.5" y1="1568.5" x2="656.5" y2="1569.5"/>
      <line class="cls-2" x1="601.5" y1="1607.5" x2="625.5" y2="1630.5"/>
      <line class="cls-2" x1="713.5" y1="1348.5" x2="693.5" y2="1332.5"/>
      <line class="cls-2" x1="720.5" y1="1334.5" x2="714.5" y2="1317.5"/>
      <line class="cls-2" x1="747.5" y1="1354.5" x2="777.5" y2="1371.5"/>
      <line class="cls-2" x1="750.5" y1="1344.5" x2="775.5" y2="1348.5"/>
      <polygon class="cls-1" points="558 1653 598 1619 629 1581 642 1555 645 1518 602 1547 576 1579 561 1616 558 1653"/>
      <line class="cls-2" x1="737.5" y1="1365.5" x2="757" y2="1384"/>
      <line class="cls-2" x1="750.5" y1="1331.5" x2="776.5" y2="1333.5"/>
      <line class="cls-2" x1="735.5" y1="1326.5" x2="729.5" y2="1308.5"/>
      <line class="cls-2" x1="727.51" y1="1372.16" x2="749" y2="1396"/>
      <line class="cls-2" x1="706.5" y1="1360.5" x2="681.5" y2="1352.5"/>
      <polygon class="cls-1" points="697.5 1380.49 718.5 1333.15 750.5 1318.5 756.5 1353.44 723.5 1385 697.5 1380.49"/>
      <line class="cls-2" x1="643" y1="1540" x2="664" y2="1540"/>
      <polyline class="cls-1" points="680 1377 766 1393 879 1408 919 1428 933 1461 928 1495 928 1557"/>
      <polygon class="cls-3" points="3107.06 427.05 3116.29 174.24 3112.59 427.19 3134.72 175.18 3118.11 427.62 3153.08 177.06 3123.61 428.32 3171.32 179.88 3129.05 429.31 3189.39 183.62 3134.45 430.57 3207.25 188.29 3139.76 432.1 3224.84 193.85 3145 433.91 3242.13 200.31 3150.14 435.98 3259.07 207.65 3155.16 438.31 3275.61 215.84 3160.05 440.89 3291.71 224.86 3164.82 443.72 3307.32 234.69 3169.42 446.79 3322.42 245.31 3173.87 450.09 3336.95 256.69 3178.14 453.61 3350.89 268.79 3182.23 457.35 3364.18 281.59 3186.12 461.29 3376.81 295.05 3189.8 465.42 3388.74 309.13 3193.27 469.74 3399.92 323.81 3196.51 474.22 3410.35 339.04 3199.52 478.87 3419.98 354.78 3202.29 483.67 3428.8 371 3204.81 488.6 3436.78 387.64 3207.07 493.65 3443.89 404.67 3209.08 498.81 3450.13 422.04 3210.82 504.07 3455.47 439.7 3212.28 509.4 3459.91 457.62 3213.48 514.81 3463.42 475.74 3214.39 520.27 3466.01 494.01 3215.03 525.77 3467.65 512.39 3215.38 531.3 3468.36 530.84 3215.45 536.83 3468.13 549.29 3215.24 542.37 3466.95 567.71 3214.74 547.88 3464.83 586.04 3213.97 553.36 3461.78 604.24 3212.91 558.8 3457.8 622.27 3211.58 564.17 3452.91 640.06 3209.98 569.47 3447.12 657.59 3208.11 574.68 3440.44 674.79 3205.97 579.79 3432.89 691.63 3203.58 584.78 3424.49 708.07 3200.94 589.65 3415.26 724.05 3198.05 594.37 3405.23 739.54 3194.92 598.94 3394.42 754.5 3191.56 603.34 3382.86 768.88 3187.99 607.57 3370.58 782.66 3184.2 611.61 3357.62 795.8 3180.21 615.45 3344 808.25 3176.03 619.08 3329.76 819.99 3171.67 622.49 3314.94 830.99 3167.14 625.68 3299.58 841.22 3162.45 628.63 3283.71 850.65 3157.62 631.33 3267.39 859.26 3152.66 633.79 3250.65 867.03 3147.58 635.99 3233.53 873.92 3142.39 637.93 3216.08 879.94 3137.11 639.6 3198.35 885.06 3131.76 641 3180.38 889.26 3126.34 642.12 3162.22 892.55 3120.86 642.97 3143.91 894.9 3115.36 643.53 3125.51 896.31 3109.83 643.81 3107.06 896.78 3104.29 643.81 3088.61 896.31 3098.76 643.53 3070.21 894.9 3093.25 642.97 3051.9 892.55 3087.78 642.12 3033.74 889.26 3082.36 641 3015.77 885.06 3077 639.6 2998.04 879.94 3071.72 637.93 2980.59 873.92 3066.54 635.99 2963.47 867.03 3061.46 633.79 2946.73 859.26 3056.49 631.33 2930.41 850.65 3051.66 628.63 2914.54 841.22 3046.98 625.68 2899.18 830.99 3042.45 622.49 2884.36 819.99 3038.09 619.08 2870.12 808.25 3033.91 615.45 2856.5 795.8 3029.92 611.61 2843.53 782.66 3026.13 607.57 2831.26 768.88 3022.56 603.34 2819.7 754.5 3019.2 598.94 2808.89 739.54 3016.07 594.37 2798.85 724.05 3013.18 589.65 2789.63 708.07 3010.54 584.78 2781.23 691.63 3008.14 579.79 2773.68 674.79 3006.01 574.68 2767 657.59 3004.14 569.47 2761.2 640.06 3002.53 564.17 2756.31 622.27 3001.2 558.8 2752.34 604.24 3000.15 553.36 2749.29 586.04 2999.38 547.88 2747.17 567.71 2998.88 542.37 2745.99 549.29 2998.67 536.83 2745.76 530.84 2998.74 531.3 2746.47 512.39 2999.09 525.77 2748.11 494.01 2999.73 520.27 2750.7 475.74 3000.64 514.81 2754.21 457.62 3001.84 509.4 2758.64 439.7 3003.3 504.07 2763.99 422.04 3005.04 498.81 2770.23 404.67 3007.04 493.65 2777.34 387.64 3009.31 488.6 2785.32 371 3011.83 483.67 2794.14 354.78 3014.6 478.87 2803.77 339.04 3017.61 474.22 2814.2 323.81 3020.85 469.74 2825.38 309.13 3024.32 465.42 2837.31 295.05 3028 461.29 2849.93 281.59 3031.89 457.35 2863.23 268.79 3035.98 453.61 2877.16 256.69 3040.25 450.09 2891.7 245.31 3044.7 446.79 2906.79 234.69 3049.3 443.72 2922.41 224.86 3054.06 440.89 2938.51 215.84 3058.96 438.31 2955.05 207.65 3063.98 435.98 2971.99 200.31 3069.12 433.91 2989.28 193.85 3074.35 432.1 3006.87 188.29 3079.67 430.57 3024.73 183.62 3085.06 429.31 3042.8 179.88 3090.51 428.32 3061.04 177.06 3096 427.62 3079.4 175.18 3101.52 427.19 3097.83 174.24 3107.06 427.05"/>
      <polygon class="cls-4" points="3107.18 691.6 2969.86 1013.02 3028.13 668.39 2738.84 864.55 2974.17 606.12 2624.75 614.75 2962.45 524.58 2663.84 342.92 2996.67 449.63 2843.68 135.37 3065.98 405.09 3107.18 58 3148.37 405.09 3370.68 135.37 3217.68 449.63 3550.51 342.92 3251.9 524.58 3589.6 614.75 3240.18 606.12 3475.51 864.55 3186.22 668.39 3244.49 1013.02 3107.18 691.6"/>
    </g>
  </g>
</svg>
